<svg width="112" height="31" viewBox="0 0 112 31" fill="none" xmlns="http://www.w3.org/2000/svg">
<rect x="26" y="3" width="86" height="26" rx="2" fill="white"/>
<path d="M1.17188 5.5918H7.15332V6.62939L5.31006 6.91016V22.6816L7.15332 22.9624V24H1.17188V22.9624L3.05176 22.6816V6.91016L1.17188 6.62939V5.5918ZM16.5283 13.2212C15.2832 13.2212 14.034 13.6525 12.7808 14.5151V22.7061L14.3311 22.9868V24H9.2041V22.9868L10.791 22.7061V13.8193L9.2041 13.5386V12.5254L12.5732 11.6343V13.2212C14.2171 12.1632 15.743 11.6343 17.1509 11.6343C18.8436 11.6343 19.9463 12.3382 20.459 13.7461C20.6299 14.2181 20.7153 14.7715 20.7153 15.4062V22.7061L22.2656 22.9868V24H17.1509V22.9868L18.7256 22.7061V15.6382C18.7256 14.0269 17.9932 13.2212 16.5283 13.2212Z" fill="white"/>
<path d="M40.0391 20.9849L45.6299 6.91016L43.811 6.62939V5.5918H48.6206V6.62939L47.2412 6.86133L40.4419 24H39.1235L32.1045 6.91016L30.6519 6.62939V5.5918H36.3037V6.62939L34.4238 6.91016L40.0391 20.9849ZM47.2046 18.0674C47.2046 17.1315 47.3633 16.2607 47.6807 15.4551C48.0062 14.6494 48.4456 13.9658 48.999 13.4043C50.1383 12.2243 51.5422 11.6343 53.2104 11.6343C55.1473 11.6343 56.661 12.208 57.7515 13.3555C58.785 14.4541 59.3018 15.8905 59.3018 17.6646C59.3018 19.6421 58.7158 21.2493 57.5439 22.4863C56.4046 23.6826 54.9967 24.2808 53.3203 24.2808C51.4079 24.2808 49.8942 23.6908 48.7793 22.5107C47.7295 21.404 47.2046 19.9229 47.2046 18.0674ZM50.3296 14.4297C50.0041 14.8447 49.7559 15.333 49.585 15.8945C49.4222 16.4561 49.3408 17.0664 49.3408 17.7256C49.3408 18.3766 49.4141 19.0155 49.5605 19.6421C49.7152 20.2606 49.9512 20.8099 50.2686 21.29C50.9684 22.3317 51.9775 22.8525 53.2959 22.8525C54.5329 22.8525 55.4932 22.4456 56.1768 21.6318C56.8522 20.8343 57.1899 19.756 57.1899 18.397C57.1899 15.9881 56.5023 14.3687 55.127 13.5386C54.6143 13.2293 54.008 13.0747 53.3081 13.0747C52.6082 13.0747 52.0182 13.1968 51.5381 13.4409C51.0579 13.6769 50.6551 14.0065 50.3296 14.4297ZM64.7217 22.7061L66.2842 22.9868V24H61.1572V22.9868L62.7441 22.7061V13.8193L61.1572 13.5386V12.5254L64.7217 11.6343V22.7061ZM62.6709 7.91113C62.5407 7.76465 62.4349 7.60189 62.3535 7.42285C62.2721 7.24382 62.2314 7.06885 62.2314 6.89795C62.2314 6.71891 62.2721 6.54395 62.3535 6.37305C62.4349 6.19401 62.5407 6.03125 62.6709 5.88477C62.972 5.55924 63.2446 5.39648 63.4888 5.39648C63.741 5.39648 63.9526 5.44124 64.1235 5.53076C64.3026 5.62028 64.4613 5.73828 64.5996 5.88477C64.9007 6.21842 65.0513 6.51546 65.0513 6.77588C65.0513 7.02816 65.0065 7.24382 64.917 7.42285C64.8356 7.60189 64.7298 7.76465 64.5996 7.91113C64.2904 8.22852 64.0055 8.38721 63.7451 8.38721C63.4928 8.38721 63.2853 8.34245 63.1226 8.25293C62.9598 8.16341 62.8092 8.04948 62.6709 7.91113ZM77.71 21.2046L78.4058 21.998C77.1118 23.1618 75.8586 23.8901 74.646 24.1831C74.3774 24.2482 74.113 24.2808 73.8525 24.2808C72.0703 24.2808 70.6299 23.7152 69.5312 22.584C68.4652 21.4854 67.9321 20.0409 67.9321 18.2505C67.9321 16.4601 68.4652 14.9424 69.5312 13.6973C70.7194 12.3219 72.3145 11.6343 74.3164 11.6343C75.651 11.6343 76.8311 11.854 77.8564 12.2935L77.5635 14.7471H76.7944C76.7944 13.9251 76.3021 13.4043 75.3174 13.1846C75.0081 13.1113 74.5768 13.0747 74.0234 13.0747C73.4701 13.0747 72.9248 13.2049 72.3877 13.4653C71.8587 13.7176 71.4233 14.0553 71.0815 14.4785C70.4061 15.3167 70.0684 16.3421 70.0684 17.5547C70.0684 19.0439 70.4346 20.2362 71.167 21.1313C71.9564 22.0916 72.9696 22.5718 74.2065 22.5718C75.4517 22.5718 76.6195 22.116 77.71 21.2046ZM90.0635 21.2046L90.7593 21.998C89.4653 23.1618 88.2121 23.8901 86.9995 24.1831C86.731 24.2482 86.4665 24.2808 86.2061 24.2808C84.4157 24.2808 82.959 23.7152 81.8359 22.584C80.721 21.4772 80.1636 20.0327 80.1636 18.2505C80.1636 16.4764 80.6885 14.9587 81.7383 13.6973C82.8939 12.3219 84.3953 11.6343 86.2427 11.6343C87.5203 11.6343 88.5986 12.0941 89.4775 13.0137C90.4134 13.974 90.8813 15.2231 90.8813 16.7612L90.3076 17.2739L82.3486 17.8477C82.3649 19.3288 82.8451 20.5129 83.7891 21.3999C84.6354 22.1812 85.6201 22.5718 86.7432 22.5718C87.8662 22.5718 88.973 22.116 90.0635 21.2046ZM82.4341 16.7002L88.7085 16.1265C88.6515 14.7756 88.1307 13.8478 87.146 13.3433C86.7961 13.1642 86.3485 13.0747 85.8032 13.0747C85.258 13.0747 84.7697 13.209 84.3384 13.4775C83.9152 13.7461 83.5653 14.0716 83.2886 14.4541C82.7596 15.1784 82.4748 15.9271 82.4341 16.7002ZM93.8965 13.8193L92.334 13.5386V12.5254L95.874 11.6343V14.7471C97.7458 12.6719 99.1536 11.6343 100.098 11.6343C100.871 11.6343 101.583 11.9435 102.234 12.562L101.599 14.5396H101.025C101.025 14.1408 100.72 13.8438 100.11 13.6484C99.939 13.5996 99.7681 13.5752 99.5972 13.5752C98.7345 13.5752 97.4935 14.4419 95.874 16.1753V22.7061L98.291 22.9868V24H92.334V22.9868L93.8965 22.7061V13.8193Z" fill="black"/>
</svg>
